<svg aria-hidden="true" style="position: absolute; width: 0; height: 0; overflow: hidden;" version="1.1" xmlns="http://www.w3.org/2000/svg" xmlns:xlink="http://www.w3.org/1999/xlink">
<defs>
<symbol id="pointer" viewBox="0 0 32 32">
<path d="M23.925 3.283c-2.017-2.028-4.809-3.283-7.894-3.283-0.011 0-0.021 0-0.032 0h0.002c-0.009-0-0.020-0-0.031-0-3.085 0-5.877 1.255-7.893 3.282l-0.001 0.001c-3.917 3.917-4.404 11.286-1.054 15.751l8.979 12.967 8.965-12.949c3.363-4.483 2.876-11.852-1.041-15.769zM16.104 15.194c-2.255 0-4.091-1.836-4.091-4.091s1.836-4.091 4.091-4.091 4.091 1.836 4.091 4.091-1.836 4.091-4.091 4.091z"></path>
</symbol>
<symbol id="menu" viewBox="0 0 32 32">
<path d="M6.4 11.733v-2.133h19.2v2.133h-19.2zM6.4 17.067h19.2v-2.133h-19.2v2.133zM6.4 22.4h19.2v-2.133h-19.2v2.133z"></path>
</symbol>
<symbol id="cross" viewBox="0 0 32 32">
<path d="M23.733 10.304l-1.504-1.504-5.963 5.963-5.963-5.963-1.504 1.504 5.963 5.963-5.963 5.963 1.504 1.504 5.963-5.963 5.963 5.963 1.504-1.504-5.963-5.963 5.963-5.963z"></path>
</symbol>
<symbol id="arrow" viewBox="0 0 66 32">
<path d="M65.456 15.765c1.222 0.771 1.067 2.6-0.268 3.154l-30.38 12.621c-0.71 0.295-1.508 0.297-2.219 0.006l-31.249-12.8c-1.221-0.5-1.42-2.146-0.353-2.923v0c0.469-0.342 1.081-0.418 1.62-0.202l29.995 12.013c0.704 0.282 1.491 0.278 2.193-0.012l29.029-11.996c0.535-0.221 1.143-0.169 1.632 0.14v0z"></path>
<path d="M59.433 8.322c0.972 0.778 0.767 2.31-0.375 2.805l-24.211 10.486c-0.732 0.317-1.562 0.32-2.295 0.007l-24.494-10.424c-1.205-0.513-1.396-2.14-0.343-2.918v0c0.478-0.353 1.106-0.429 1.654-0.201l23.21 9.64c0.718 0.298 1.525 0.297 2.241-0.004l22.942-9.624c0.558-0.234 1.199-0.144 1.671 0.233v0z"></path>
<path d="M52.161 0.371c1.225 0.773 1.091 2.599-0.233 3.186l-17.070 7.566c-0.739 0.327-1.58 0.333-2.323 0.015l-18.188-7.778c-1.215-0.52-1.401-2.165-0.333-2.943v0c0.48-0.35 1.108-0.424 1.656-0.196l16.874 7.008c0.738 0.306 1.569 0.296 2.299-0.029l15.615-6.952c0.552-0.246 1.191-0.2 1.702 0.123v0z"></path>
</symbol>
<symbol id="planet" viewBox="0 0 32 32">
<path d="M13.867 0.156c-6.101 0.768-11.477 5.404-13.212 11.42-2.148 7.381 1.408 15.374 8.334 18.759 6.002 2.944 13.113 1.863 17.948-2.745 6.713-6.372 6.713-16.811 0-23.182-3.527-3.356-8.178-4.864-13.070-4.252zM17.963 1.365c1.095 0.114 2.532 0.498 2.432 0.654-0.043 0.071-0.156 0.1-0.256 0.071-0.213-0.085-0.64 0.27-1.052 0.853-0.185 0.256-0.455 0.469-0.597 0.469s-0.555 0.341-0.91 0.74l-0.654 0.754-0.356-0.398c-0.412-0.469-0.597-1.28-0.37-1.749 0.213-0.484 0.199-0.626-0.071-0.626-0.142 0-0.185 0.085-0.128 0.27s-0.057 0.37-0.356 0.64c-0.398 0.327-0.469 0.341-0.754 0.171-0.654-0.412-2.233-0.085-2.688 0.555-0.156 0.213-0.142 0.754 0.028 0.853 0.185 0.114 0.939-0.299 1.052-0.569 0.043-0.128 0.156-0.185 0.242-0.142 0.085 0.057 0.37-0.014 0.64-0.156l0.484-0.27 0.384 0.398c0.299 0.299 0.356 0.412 0.213 0.555-0.213 0.213-0.228 0.597 0 0.455s0.028 0.811-0.242 1.067c-0.171 0.171-0.27 0.171-0.583 0.028s-0.427-0.128-0.64 0.071c-0.142 0.128-0.626 0.27-1.081 0.327s-0.967 0.171-1.138 0.27c-0.171 0.1-0.441 0.171-0.612 0.171s-0.484 0.128-0.711 0.284c-0.213 0.156-0.555 0.341-0.754 0.412-0.313 0.128-0.384 0.27-0.469 0.868-0.057 0.398-0.142 0.754-0.213 0.782-0.142 0.1-0.555-0.498-0.555-0.811 0-0.668-1.394-0.74-2.247-0.114-0.981 0.711-0.981 1.991 0 1.792 0.569-0.114 0.711 0.284 0.256 0.654-0.284 0.228-0.313 0.313-0.171 0.555 0.1 0.142 0.171 0.512 0.171 0.825 0 0.441 0.085 0.626 0.37 0.853 0.498 0.398 0.74 0.37 1.209-0.071l0.398-0.37 0.469 0.284c0.256 0.156 0.626 0.327 0.825 0.384 0.967 0.299 2.759 1.749 3.143 2.546 0.412 0.868 0.697 1.152 1.422 1.422 0.356 0.128 0.825 0.412 1.024 0.626 0.341 0.356 0.37 0.455 0.242 0.882-0.071 0.256-0.284 0.64-0.484 0.839-0.185 0.199-0.427 0.612-0.526 0.924-0.27 0.74-0.967 1.522-1.564 1.721-0.299 0.1-0.654 0.412-0.939 0.796-0.612 0.825-1.138 1.365-1.877 1.963-0.882 0.697-1.095 1.237-0.924 2.304 0.085 0.469 0.1 0.882 0.043 0.924-0.142 0.085-1.223-0.882-1.436-1.266-0.469-0.896-0.612-3.228-0.327-5.518 0.071-0.54 0.057-0.839-0.057-0.896-0.085-0.057-0.156-0.313-0.156-0.569 0-0.327-0.128-0.583-0.427-0.868-0.868-0.825-1.138-1.38-1.152-2.304-0.014-0.768 0.043-0.953 0.498-1.621 0.626-0.939 0.683-1.579 0.156-1.92-0.199-0.128-0.384-0.427-0.441-0.697-0.043-0.27-0.213-0.583-0.356-0.725-0.156-0.142-0.242-0.356-0.199-0.469 0.043-0.156-0.1-0.327-0.441-0.512-0.64-0.341-0.782-0.626-0.754-1.408 0.028-0.341-0.043-0.811-0.142-1.052-0.171-0.412-0.156-0.484 0.313-1.124 0.711-0.967 2.574-2.731 3.627-3.442 1.934-1.294 4.48-2.219 6.784-2.418 1.237-0.114 1.806-0.1 3.385 0.071zM26.098 5.291c0.725 0.697 1.65 1.735 2.048 2.318 3.428 4.949 3.47 11.648 0.142 16.597-0.327 0.498-1.109 1.422-1.735 2.062-1.237 1.266-2.958 2.603-2.66 2.048 0.085-0.171 0.128-0.498 0.071-0.711-0.057-0.27 0.057-0.668 0.37-1.337 0.384-0.853 0.427-1.052 0.341-1.735-0.1-0.796 0.085-1.38 0.569-1.778 0.128-0.1 0.327-0.384 0.455-0.612 0.185-0.384 0.185-0.498-0.014-1.237-0.213-0.725-0.213-0.868-0.014-1.422 0.114-0.327 0.213-0.782 0.213-0.996 0-0.455-0.213-0.526-2.062-0.683-1.294-0.114-1.55-0.242-2.517-1.138-0.612-0.583-0.683-0.697-0.683-1.266 0-0.356 0.1-1.024 0.228-1.508 0.114-0.469 0.185-0.996 0.142-1.18-0.1-0.37 0.455-1.124 0.939-1.28 0.171-0.043 0.455-0.27 0.64-0.484 0.398-0.484 1.508-0.782 2.361-0.64 0.327 0.057 0.853 0.128 1.152 0.171 0.341 0.028 0.796 0.242 1.124 0.512 0.612 0.469 1.948 0.782 1.948 0.455 0-0.299-0.583-0.924-0.853-0.924-0.142 0-0.356-0.128-0.469-0.299-0.128-0.185-0.242-0.228-0.313-0.142-0.142 0.242-0.327 0.185-0.427-0.114-0.057-0.199-0.199-0.27-0.469-0.256-0.299 0.028-0.398-0.043-0.427-0.299-0.028-0.171-0.142-0.313-0.256-0.313s-0.398-0.1-0.612-0.213l-0.412-0.199-0.085 0.555c-0.085 0.498-0.128 0.569-0.612 0.654-0.597 0.114-0.853-0.014-1.28-0.654-0.455-0.654-0.412-0.825 0.284-1.010 1.252-0.341 1.508-0.597 1.408-1.451-0.043-0.398-0.128-0.526-0.327-0.526-0.142 0-0.341-0.128-0.441-0.284s-0.284-0.284-0.398-0.284c-0.384 0-0.569-0.313-0.569-0.939 0-0.555 0.028-0.612 0.441-0.697 0.242-0.057 0.469-0.185 0.512-0.299 0.114-0.313 0.768 0.128 2.247 1.536z"></path>
</symbol>
</defs>
</svg>
