<svg aria-hidden="true" style="position: absolute; width: 0; height: 0; overflow: hidden;" version="1.1" xmlns="http://www.w3.org/2000/svg" xmlns:xlink="http://www.w3.org/1999/xlink">
<defs>
<symbol id="pointer" viewBox="0 0 32 32">
<path d="M23.925 3.283c-2.017-2.028-4.809-3.283-7.894-3.283-0.011 0-0.021 0-0.032 0h0.002c-0.009-0-0.020-0-0.031-0-3.085 0-5.877 1.255-7.893 3.282l-0.001 0.001c-3.917 3.917-4.404 11.286-1.054 15.751l8.979 12.967 8.965-12.949c3.363-4.483 2.876-11.852-1.041-15.769zM16.104 15.194c-2.255 0-4.091-1.836-4.091-4.091s1.836-4.091 4.091-4.091 4.091 1.836 4.091 4.091-1.836 4.091-4.091 4.091z"></path>
</symbol>
<symbol id="menu" viewBox="0 0 32 32">
<path d="M6.4 11.733v-2.133h19.2v2.133h-19.2zM6.4 17.067h19.2v-2.133h-19.2v2.133zM6.4 22.4h19.2v-2.133h-19.2v2.133z"></path>
</symbol>
<symbol id="cross" viewBox="0 0 32 32">
<path d="M23.733 10.304l-1.504-1.504-5.963 5.963-5.963-5.963-1.504 1.504 5.963 5.963-5.963 5.963 1.504 1.504 5.963-5.963 5.963 5.963 1.504-1.504-5.963-5.963 5.963-5.963z"></path>
</symbol>
</defs>
</svg>
