<svg aria-hidden="true" style="position: absolute; width: 0; height: 0; overflow: hidden;" version="1.1" xmlns="http://www.w3.org/2000/svg" xmlns:xlink="http://www.w3.org/1999/xlink">
<defs>
<symbol id="pointer" viewBox="0 0 32 32">
<path d="M23.925 3.283c-2.017-2.028-4.809-3.283-7.894-3.283-0.011 0-0.021 0-0.032 0h0.002c-0.009-0-0.020-0-0.031-0-3.085 0-5.877 1.255-7.893 3.282l-0.001 0.001c-3.917 3.917-4.404 11.286-1.054 15.751l8.979 12.967 8.965-12.949c3.363-4.483 2.876-11.852-1.041-15.769zM16.104 15.194c-2.255 0-4.091-1.836-4.091-4.091s1.836-4.091 4.091-4.091 4.091 1.836 4.091 4.091-1.836 4.091-4.091 4.091z"></path>
</symbol>
<symbol id="menu" viewBox="0 0 32 32">
<path d="M6.4 11.733v-2.133h19.2v2.133h-19.2zM6.4 17.067h19.2v-2.133h-19.2v2.133zM6.4 22.4h19.2v-2.133h-19.2v2.133z"></path>
</symbol>
<symbol id="cross" viewBox="0 0 32 32">
<path d="M23.733 10.304l-1.504-1.504-5.963 5.963-5.963-5.963-1.504 1.504 5.963 5.963-5.963 5.963 1.504 1.504 5.963-5.963 5.963 5.963 1.504-1.504-5.963-5.963 5.963-5.963z"></path>
</symbol>
<symbol id="arrow" viewBox="0 0 66 32">
<path d="M65.456 15.765c1.222 0.771 1.067 2.6-0.268 3.154l-30.38 12.621c-0.71 0.295-1.508 0.297-2.219 0.006l-31.249-12.8c-1.221-0.5-1.42-2.146-0.353-2.923v0c0.469-0.342 1.081-0.418 1.62-0.202l29.995 12.013c0.704 0.282 1.491 0.278 2.193-0.012l29.029-11.996c0.535-0.221 1.143-0.169 1.632 0.14v0z"></path>
<path d="M59.433 8.322c0.972 0.778 0.767 2.31-0.375 2.805l-24.211 10.486c-0.732 0.317-1.562 0.32-2.295 0.007l-24.494-10.424c-1.205-0.513-1.396-2.14-0.343-2.918v0c0.478-0.353 1.106-0.429 1.654-0.201l23.21 9.64c0.718 0.298 1.525 0.297 2.241-0.004l22.942-9.624c0.558-0.234 1.199-0.144 1.671 0.233v0z"></path>
<path d="M52.161 0.371c1.225 0.773 1.091 2.599-0.233 3.186l-17.070 7.566c-0.739 0.327-1.58 0.333-2.323 0.015l-18.188-7.778c-1.215-0.52-1.401-2.165-0.333-2.943v0c0.48-0.35 1.108-0.424 1.656-0.196l16.874 7.008c0.738 0.306 1.569 0.296 2.299-0.029l15.615-6.952c0.552-0.246 1.191-0.2 1.702 0.123v0z"></path>
</symbol>
</defs>
</svg>
